<svg width="26" height="26" viewBox="0 0 26 26" fill="none" xmlns="http://www.w3.org/2000/svg">
<path opacity="0.4" d="M13 5.74167V23.1075C12.8159 23.1075 12.6209 23.075 12.4692 22.9883L12.4259 22.9667C10.3459 21.8292 6.71669 20.6375 4.36585 20.3233L4.05169 20.28C3.01169 20.15 2.16669 19.175 2.16669 18.135V5.04833C2.16669 3.75917 3.21752 2.78417 4.50669 2.8925C6.78169 3.07667 10.2267 4.225 12.155 5.4275L12.4259 5.59C12.5884 5.6875 12.7942 5.74167 13 5.74167Z" fill="black"/>
<path opacity=".4" d="M23.8333 5.05917V18.135C23.8333 19.175 22.9883 20.15 21.9483 20.28L21.5908 20.3233C19.2292 20.6375 15.5892 21.84 13.5092 22.9883C13.3683 23.075 13.195 23.1075 13 23.1075V5.74167C13.2058 5.74167 13.4117 5.68751 13.5742 5.59001L13.7583 5.47084C15.6867 4.25751 19.1425 3.09834 21.4175 2.90334H21.4825C22.7717 2.79501 23.8333 3.75917 23.8333 5.05917Z" fill="#ffff"/>
<path opacity="0.4" d="M8.39581 10.01H5.95831C5.51415 10.01 5.14581 9.64166 5.14581 9.19749C5.14581 8.75333 5.51415 8.38499 5.95831 8.38499H8.39581C8.83998 8.38499 9.20831 8.75333 9.20831 9.19749C9.20831 9.64166 8.83998 10.01 8.39581 10.01Z" fill="#ffffff"/>
<path  opacity="0.4" d="M9.20831 13.26H5.95831C5.51415 13.26 5.14581 12.8917 5.14581 12.4475C5.14581 12.0033 5.51415 11.635 5.95831 11.635H9.20831C9.65248 11.635 10.0208 12.0033 10.0208 12.4475C10.0208 12.8917 9.65248 13.26 9.20831 13.26Z" fill="#ffffff"/>
</svg>
