<svg width="26" height="26" viewBox="0 0 26 26" fill="none" xmlns="http://www.w3.org/2000/svg">
<path d="M7.84335 2.16666H5.78502C3.41252 2.16666 2.16669 3.41249 2.16669 5.77416V7.83249C2.16669 10.1942 3.41252 11.44 5.77419 11.44H7.83252C10.1942 11.44 11.44 10.1942 11.44 7.83249V5.77416C11.4509 3.41249 10.205 2.16666 7.84335 2.16666Z" fill="white"/>
<path opacity="0.4" d="M20.2258 2.16666H18.1675C15.8058 2.16666 14.56 3.41249 14.56 5.77416V7.83249C14.56 10.1942 15.8058 11.44 18.1675 11.44H20.2258C22.5875 11.44 23.8333 10.1942 23.8333 7.83249V5.77416C23.8333 3.41249 22.5875 2.16666 20.2258 2.16666Z" fill="white"/>
<path d="M20.2258 14.5492H18.1675C15.8058 14.5492 14.56 15.795 14.56 18.1567V20.215C14.56 22.5767 15.8058 23.8225 18.1675 23.8225H20.2258C22.5875 23.8225 23.8333 22.5767 23.8333 20.215V18.1567C23.8333 15.795 22.5875 14.5492 20.2258 14.5492Z" fill="white"/>
<path opacity="0.4" d="M7.84335 14.5492H5.78502C3.41252 14.5492 2.16669 15.795 2.16669 18.1567V20.215C2.16669 22.5875 3.41252 23.8333 5.77419 23.8333H7.83252C10.1942 23.8333 11.44 22.5875 11.44 20.2258V18.1675C11.4509 15.795 10.205 14.5492 7.84335 14.5492Z" fill="white"/>
</svg>
